<svg width="10" height="10" xmlns="http://www.w3.org/2000/svg">
 <!-- Created with Method Draw - http://github.com/duopixel/Method-Draw/ -->
 <g>
  <title>background</title>
  <rect fill="#e0e03e" id="canvas_background" height="12" width="12" y="-1" x="-1"/>
 </g>
 <g>
  <title>Layer 1</title>
  <path d="m1.55,1.8c0,0.1 0,0.4 0,0.5c0,0.3 -0.1,0.7 -0.1,1.1c0,0.3 0,0.5 0,0.8c0,0.6 -0.2,1.2 -0.2,1.7c0,0.5 0.04935,0.98786 0.1,1.3c0.04805,0.29613 0.1,0.4 0.1,0.5c0,0.2 0.1,0.3 0.2,0.3c0.1,0 0.2,0 0.4,0c0.2,0 0.90169,0.09034 1.5,0.2c0.50155,0.09193 1,0.2 1.5,0.2c0.4,0 0.7,0 1.1,0c0.2,0 0.631,0.06625 0.9,-0.1c0.1203,-0.07435 0.2,-0.2 0.3,-0.4c0.1,-0.2 0.17654,-0.41522 0.1,-0.6c-0.05412,-0.13066 -0.20761,-0.16173 -0.3,-0.2c-0.26131,-0.10824 -0.4066,-0.28777 -0.6,-0.4c-0.31185,-0.18097 -0.44189,-0.34189 -0.6,-0.5c-0.31623,-0.31623 -0.6066,-0.18777 -0.8,-0.3c-0.31185,-0.18097 -0.79341,-0.31443 -1,-0.4c-0.29216,-0.12102 -0.58786,-0.14935 -0.9,-0.2c-0.19742,-0.03204 -0.5,0 -0.7,0c-0.2,0 -0.37071,-0.02929 -0.3,-0.1c0.14142,-0.14142 0.3,0 0.7,0c0.3,0 0.7,0 1,0c0.2,0 0.5,0 0.9,0c0.2,0 0.58238,-0.04863 0.8,-0.1c0.29197,-0.06893 0.36934,-0.04588 0.5,-0.1c0.18478,-0.07654 0.48244,-0.00979 0.6,-0.2c0.05257,-0.08507 0.05858,-0.05858 0.2,-0.2c0.07071,-0.07071 0.1,-0.3 0.1,-0.5c0,-0.2 0,-0.3 0,-0.4c0,-0.1 -0.08244,-0.20979 -0.2,-0.4c-0.05257,-0.08506 -0.06934,-0.24588 -0.2,-0.3c-0.09239,-0.03827 -0.2066,-0.08777 -0.4,-0.2c-0.31185,-0.18097 -0.59341,-0.41443 -0.8,-0.5c-0.29216,-0.12102 -0.38237,-0.34863 -0.6,-0.4c-0.19465,-0.04595 -0.58786,-0.04935 -0.9,-0.1c-0.19742,-0.03204 -0.5,0 -0.7,0c-0.4,0 -0.8,0 -1.3,0l-0.3,0l-0.1,0l-0.1,0" id="svg_1" stroke-width="1.5" stroke="#000" fill="none"/>
 </g>
</svg>