<svg width="10" height="10" xmlns="http://www.w3.org/2000/svg">
 <!-- Created with Method Draw - http://github.com/duopixel/Method-Draw/ -->
 <g>
  <title>background</title>
  <rect fill="#ff56ff" id="canvas_background" height="12" width="12" y="-1" x="-1"/>
 </g>
 <g>
  <title>Layer 1</title>
  <path d="m1.92913,1.69291c-0.15748,0 -0.15748,0.15748 -0.15748,0.47244c0,0.47244 0,0.7874 0,1.25984c0,0.62992 0,1.25984 0,1.88976c0,0.31496 0.18745,0.92622 0.47244,1.41732c0.17675,0.30457 0.31496,0.62992 0.47244,1.10236l0,0.15748l0,0.15748l0.15748,0" id="svg_1" stroke-width="1.5" stroke="#000" fill="none"/>
  <path d="m1.77165,1.69291c0.47244,0 1.10236,0.15748 1.73228,0.15748c0.31496,0 0.60216,0.07658 0.94488,0.15748c0.61307,0.14473 0.94488,0 1.41732,0c0.15748,0 0.62992,0 0.7874,0c0.15748,0 0.47244,0 0.62992,0l0.15748,0l0.15748,0" id="svg_2" stroke-width="1.5" stroke="#000" fill="none"/>
  <path d="m1.45669,4.68504c0.15748,0 0.31496,0 0.62992,0c0.15748,0 0.7874,0 1.10236,0c0.47244,0 0.62992,0 0.94488,0c0.15748,0 0.31496,0 0.47244,0c0.31496,0 0.47244,0 0.62992,0l0.31496,0l0.15748,0" id="svg_3" stroke-width="1.5" stroke="#000" fill="none"/>
 </g>
</svg>