<svg version="1.1" baseProfile="full" width="60" height="60" xmlns="http://www.w3.org/2000/svg"><image href="free_field.svg" width="10" height="10" x="10" y="10" /><image href="free_field.svg" width="10" height="10" x="20" y="10" /><image href="free_field.svg" width="10" height="10" x="30" y="10" /><image href="wall_field.svg" width="10" height="10" x="40" y="10" /><image href="free_field.svg" width="10" height="10" x="50" y="10" /><image href="free_field.svg" width="10" height="10" x="10" y="20" /><image href="wall_field.svg" width="10" height="10" x="20" y="20" /><image href="wall_field.svg" width="10" height="10" x="30" y="20" /><image href="wall_field.svg" width="10" height="10" x="40" y="20" /><image href="wall_field.svg" width="10" height="10" x="50" y="20" /><image href="free_field.svg" width="10" height="10" x="10" y="30" /><image href="free_field.svg" width="10" height="10" x="20" y="30" /><image href="dark_wanderer.svg" width="10" height="10" x="30" y="30" /><image href="wall_field.svg" width="10" height="10" x="40" y="30" /><image href="free_field.svg" width="10" height="10" x="50" y="30" /><image href="wall_field.svg" width="10" height="10" x="10" y="40" /><image href="wall_field.svg" width="10" height="10" x="20" y="40" /><image href="fallen.svg" width="10" height="10" x="30" y="40" /><image href="wall_field.svg" width="10" height="10" x="40" y="40" /><image href="free_field.svg" width="10" height="10" x="50" y="40" /><image href="free_field.svg" width="10" height="10" x="10" y="50" /><image href="free_field.svg" width="10" height="10" x="20" y="50" /><image href="free_field.svg" width="10" height="10" x="30" y="50" /><image href="free_field.svg" width="10" height="10" x="40" y="50" /><image href="free_field.svg" width="10" height="10" x="50" y="50" /></svg>