<svg width="10" height="10" xmlns="http://www.w3.org/2000/svg">
 <!-- Created with Method Draw - http://github.com/duopixel/Method-Draw/ -->
 <g>
  <title>background</title>
  <rect fill="#00007f" id="canvas_background" height="12" width="12" y="-1" x="-1"/>
 </g>
 <g>
  <title>Layer 1</title>
  <path d="m2.43057,1.11113c-0.13889,0 -0.13889,0.13889 -0.13889,0.27778c0,0.27778 0,0.55555 0,1.24999c0,0.27778 0.10495,0.69652 0.13889,0.97222c0.06997,0.56836 0.18879,0.97939 0.27778,1.52777c0.07035,0.43353 -0.02056,0.72616 0.13889,1.11111c0.07517,0.18147 0.20642,0.53107 0.27778,0.83333c0.03191,0.13517 0,0.41667 0,0.55555c0,0.13889 0,0.27778 0,0.41667c0,0.13889 0.13889,0.13889 0.41666,0.13889c0.27778,0 0.55555,0 0.97222,0c0.27778,0 0.55555,0 0.69444,0c0.27778,0 0.55555,0 0.69444,0c0.13889,0 0.55555,0 0.69444,0c0.13889,0 0.31846,-0.04068 0.41666,-0.13889c0.09821,-0.09821 0.13889,-0.13889 0.13889,-0.27778c0,-0.13889 0,-0.55555 0,-0.69444c0,-0.13889 0.13889,-0.55555 0.13889,-0.83333c0,-0.27778 0.06754,-0.53107 0.13889,-0.83333c0.09573,-0.40552 0.11833,-0.58727 0.27778,-0.97222c0.07517,-0.18147 0.13889,-0.27778 0.13889,-0.41667c0,-0.41666 0.01699,-0.8425 -0.13889,-1.11111c-0.25135,-0.43312 -0.41666,-0.55555 -0.55555,-0.69444c-0.13889,-0.13889 -0.34,-0.05872 -0.69444,-0.27778c-0.26418,-0.16327 -0.27778,-0.41666 -0.55555,-0.41666c-0.13889,0 -0.31846,0.09821 -0.41666,0c-0.09821,-0.09821 -0.49802,0.05753 -0.69444,-0.13889c-0.09821,-0.09821 -0.41666,-0.13889 -0.55555,-0.13889c-0.13889,0 -0.55555,0 -0.69444,0c-0.27778,0 -0.41666,0 -0.55555,0l-0.41666,-0.13889l-0.13889,0l-0.13889,0" id="svg_1" stroke-width="1.5" stroke="#000" fill="none"/>
 </g>
</svg>